<svg width="240" height="240" viewBox="0 0 240 240" fill="none" xmlns="http://www.w3.org/2000/svg">
<path fill-rule="evenodd" clip-rule="evenodd" d="M74.4532 104.986L105.055 47.4943C105.811 46.0056 106.885 44.6896 108.205 43.6337C109.25 42.7973 110.432 42.1391 111.698 41.6844C114.251 41.4161 116.825 41.2709 119.411 41.2516C122.72 41.2269 126.013 41.4089 129.272 41.7915C130.34 42.1947 131.348 42.7422 132.265 43.4204C133.733 44.5059 134.929 45.8984 135.765 47.4942L166.342 104.986C167.615 107.316 169.52 109.264 171.851 110.619C174.181 111.975 176.85 112.688 179.567 112.679H240C239.858 84.3209 228.715 57.054 208.787 36.3056C189.386 16.1054 163.044 3.52586 134.766 0.901195C129.591 0.266853 124.358 -0.0358434 119.098 0.00337705C112.973 0.0490493 106.89 0.558008 100.9 1.5132C74.2386 4.97056 49.5594 17.3023 31.1483 36.5029C11.2626 57.2415 0.143848 84.4766 0 112.8H61.2281C63.9586 112.797 66.6358 112.066 68.9678 110.689C71.2998 109.311 73.1972 107.338 74.4532 104.986Z" fill="black"/>
<path fill-rule="evenodd" clip-rule="evenodd" d="M74.4532 135.013L105.055 192.505C105.811 193.994 106.885 195.31 108.205 196.366C109.25 197.202 110.432 197.861 111.698 198.315C114.251 198.584 116.825 198.729 119.411 198.748C122.72 198.773 126.013 198.591 129.272 198.208C130.34 197.805 131.348 197.258 132.265 196.579C133.733 195.494 134.929 194.101 135.765 192.506L166.342 135.013C167.615 132.684 169.52 130.736 171.851 129.38C174.181 128.024 176.85 127.312 179.567 127.32H240C239.858 155.679 228.715 182.946 208.787 203.694C189.386 223.894 163.044 236.474 134.766 239.099C129.591 239.733 124.358 240.036 119.098 239.996C112.973 239.951 106.89 239.442 100.9 238.487C74.2386 235.029 49.5594 222.697 31.1483 203.497C11.2626 182.758 0.143848 155.523 0 127.2H61.2281C63.9586 127.203 66.6358 127.933 68.9678 129.311C71.2998 130.689 73.1972 132.661 74.4532 135.013Z" fill="black"/>
</svg>
