<svg width="1200" height="628" viewBox="0 0 1200 628" fill="none" xmlns="http://www.w3.org/2000/svg">
<rect width="1200" height="628" fill="white"/>
<rect x="410" y="148" width="713" height="332" fill="black"/>
<path d="M529.691 334.289V358.459C521.547 362.854 514.604 365.842 508.861 367.424C503.178 369.064 497.025 369.885 490.404 369.885C481.205 369.885 472.68 368.508 464.828 365.754C458.676 363.645 453.812 360.979 450.238 357.756C446.723 354.533 443.471 349.787 440.482 343.518C437.494 337.189 436 330.129 436 322.336V309.328C436 297.316 439.662 286.594 446.986 277.16C456.83 264.387 470.219 258 487.152 258C492.074 258 496.732 258.498 501.127 259.494C505.58 260.49 509.799 261.984 513.783 263.977C516.186 261.809 518.529 260.725 520.814 260.725C523.451 260.725 525.59 261.633 527.23 263.449C528.871 265.266 529.691 268.342 529.691 272.678V284.367C529.691 288.703 528.842 291.809 527.143 293.684C525.502 295.5 523.363 296.408 520.727 296.408C518.617 296.408 516.801 295.764 515.277 294.475C514.105 293.596 513.109 291.662 512.289 288.674C511.527 285.627 510.648 283.576 509.652 282.521C508.07 280.822 505.258 279.328 501.215 278.039C497.23 276.691 492.748 276.018 487.768 276.018C480.619 276.018 474.408 277.482 469.135 280.412C465.385 282.58 461.928 286.359 458.764 291.75C455.6 297.141 454.018 303 454.018 309.328V322.336C454.018 332.004 456.801 339.357 462.367 344.396C467.992 349.377 476.898 351.867 489.086 351.867C497.348 351.867 504.877 350.314 511.674 347.209V334.289H493.305C488.969 334.289 485.863 333.469 483.988 331.828C482.172 330.129 481.264 327.932 481.264 325.236C481.264 322.541 482.172 320.373 483.988 318.732C485.863 317.033 488.969 316.184 493.305 316.184L525.297 316.271C529.633 316.271 532.709 317.092 534.525 318.732C536.4 320.373 537.338 322.541 537.338 325.236C537.338 327.346 536.693 329.191 535.404 330.773C534.174 332.355 532.27 333.527 529.691 334.289Z" fill="#FFD400"/>
<path d="M637.621 336.486H563.705C565.58 341.174 568.891 344.953 573.637 347.824C578.441 350.695 584.916 352.131 593.061 352.131C599.74 352.131 608.617 350.695 619.691 347.824C624.262 346.652 627.426 346.066 629.184 346.066C631.586 346.066 633.607 346.916 635.248 348.615C636.889 350.314 637.709 352.453 637.709 355.031C637.709 357.375 636.83 359.367 635.072 361.008C632.729 363.176 627.016 365.256 617.934 367.248C608.852 369.182 600.121 370.148 591.742 370.148C577.328 370.148 565.785 366.076 557.113 357.932C548.5 349.787 544.193 339.768 544.193 327.873C544.193 315.217 548.852 304.934 558.168 297.023C567.543 289.055 578.324 285.07 590.512 285.07C597.836 285.07 604.545 286.359 610.639 288.938C616.791 291.516 621.361 294.299 624.35 297.287C628.568 301.623 632.055 306.984 634.809 313.371C636.684 317.824 637.621 322.98 637.621 328.84V336.486ZM617.67 318.469C614.916 313.312 611.312 309.475 606.859 306.955C602.406 304.377 597.104 303.088 590.951 303.088C584.857 303.088 579.584 304.377 575.131 306.955C570.678 309.475 567.045 313.312 564.232 318.469H617.67Z" fill="#FFD400"/>
<path d="M684.068 305.461V341.584C684.068 345.451 684.859 348 686.441 349.23C688.902 351.164 693.297 352.131 699.625 352.131C708.824 352.131 717.32 350.168 725.113 346.242C728.102 344.719 730.445 343.957 732.145 343.957C734.488 343.957 736.51 344.836 738.209 346.594C739.967 348.352 740.846 350.49 740.846 353.01C740.846 355.354 739.908 357.375 738.033 359.074C735.162 361.828 729.479 364.377 720.982 366.721C712.545 369.006 705.426 370.148 699.625 370.148C688.434 370.148 680.025 367.746 674.4 362.941C668.834 358.078 666.051 352.131 666.051 345.1V305.461H659.547C655.211 305.461 652.105 304.641 650.23 303C648.414 301.301 647.506 299.104 647.506 296.408C647.506 293.771 648.414 291.633 650.23 289.992C652.105 288.293 655.211 287.443 659.547 287.443H666.051V271.184C666.051 266.848 666.871 263.771 668.512 261.955C670.211 260.08 672.408 259.143 675.104 259.143C677.74 259.143 679.879 260.08 681.52 261.955C683.219 263.771 684.068 266.848 684.068 271.184V287.443H717.379C721.715 287.443 724.791 288.293 726.607 289.992C728.482 291.633 729.42 293.801 729.42 296.496C729.42 299.133 728.482 301.301 726.607 303C724.791 304.641 721.715 305.461 717.379 305.461H684.068Z" fill="#FFD400"/>
<path d="M770.289 362.678C768.707 364.553 767.418 365.754 766.422 366.281C765.484 366.809 764.312 367.072 762.906 367.072C760.152 367.072 757.926 366.164 756.227 364.348C754.586 362.473 753.766 359.396 753.766 355.119V342.99C753.766 338.654 754.586 335.578 756.227 333.762C757.926 331.887 760.152 330.949 762.906 330.949C765.016 330.949 766.773 331.506 768.18 332.619C769.645 333.732 770.758 335.607 771.52 338.244C772.281 340.822 773.072 342.58 773.893 343.518C775.592 345.334 778.609 347.18 782.945 349.055C787.281 350.93 792.027 351.867 797.184 351.867C805.211 351.867 811.803 349.992 816.959 346.242C820.24 343.957 821.881 341.145 821.881 337.805C821.881 335.578 821.09 333.498 819.508 331.564C817.926 329.572 815.348 327.932 811.773 326.643C809.43 325.764 804.186 324.562 796.041 323.039C786.197 321.223 778.756 319.025 773.717 316.447C768.678 313.869 764.693 310.236 761.764 305.549C758.834 300.861 757.369 295.793 757.369 290.344C757.369 281.73 760.973 274.201 768.18 267.756C775.387 261.252 784.762 258 796.305 258C800.934 258 805.211 258.527 809.137 259.582C813.121 260.578 816.725 262.131 819.947 264.24C822.291 261.955 824.635 260.812 826.979 260.812C829.615 260.812 831.754 261.75 833.395 263.625C835.094 265.441 835.943 268.488 835.943 272.766V286.301C835.943 290.637 835.094 293.742 833.395 295.617C831.754 297.434 829.615 298.342 826.979 298.342C824.752 298.342 822.818 297.668 821.178 296.32C819.889 295.324 818.922 293.332 818.277 290.344C817.633 287.355 816.812 285.217 815.816 283.928C814.117 281.701 811.568 279.826 808.17 278.303C804.771 276.779 800.846 276.018 796.393 276.018C789.889 276.018 784.732 277.541 780.924 280.588C777.174 283.576 775.299 286.711 775.299 289.992C775.299 292.219 776.061 294.387 777.584 296.496C779.166 298.547 781.451 300.158 784.439 301.33C786.432 302.15 792.027 303.469 801.227 305.285C810.484 307.102 817.574 309.094 822.496 311.262C827.477 313.43 831.607 316.828 834.889 321.457C838.17 326.086 839.811 331.594 839.811 337.98C839.811 346.887 836.676 354.006 830.406 359.338C822.086 366.369 811.48 369.885 798.59 369.885C793.609 369.885 788.746 369.27 784 368.039C779.312 366.867 774.742 365.08 770.289 362.678Z" fill="#FFD400"/>
<path d="M904.674 340.969L930.777 278.742H926.646C922.311 278.742 919.205 277.922 917.33 276.281C915.514 274.582 914.605 272.385 914.605 269.689C914.605 266.994 915.514 264.826 917.33 263.186C919.205 261.486 922.311 260.637 926.646 260.637L950.816 260.725C955.152 260.725 958.229 261.545 960.045 263.186C961.92 264.826 962.857 266.994 962.857 269.689C962.857 272.912 961.451 275.461 958.639 277.336C957.291 278.273 954.537 278.742 950.377 278.742L913.375 367.248H896.061L859.146 278.742C854.928 278.742 852.145 278.273 850.797 277.336C847.984 275.52 846.578 272.971 846.578 269.689C846.578 266.994 847.516 264.826 849.391 263.186C851.207 261.486 854.283 260.637 858.619 260.637L882.965 260.725C887.242 260.725 890.289 261.545 892.105 263.186C893.98 264.826 894.918 266.994 894.918 269.689C894.918 272.385 894.01 274.582 892.193 276.281C890.377 277.922 887.301 278.742 882.965 278.742H878.746L904.674 340.969Z" fill="#FFD400"/>
<path d="M1058.22 334.289V358.459C1050.07 362.854 1043.13 365.842 1037.39 367.424C1031.71 369.064 1025.55 369.885 1018.93 369.885C1009.73 369.885 1001.21 368.508 993.355 365.754C987.203 363.645 982.34 360.979 978.766 357.756C975.25 354.533 971.998 349.787 969.01 343.518C966.021 337.189 964.527 330.129 964.527 322.336V309.328C964.527 297.316 968.189 286.594 975.514 277.16C985.357 264.387 998.746 258 1015.68 258C1020.6 258 1025.26 258.498 1029.65 259.494C1034.11 260.49 1038.33 261.984 1042.31 263.977C1044.71 261.809 1047.06 260.725 1049.34 260.725C1051.98 260.725 1054.12 261.633 1055.76 263.449C1057.4 265.266 1058.22 268.342 1058.22 272.678V284.367C1058.22 288.703 1057.37 291.809 1055.67 293.684C1054.03 295.5 1051.89 296.408 1049.25 296.408C1047.14 296.408 1045.33 295.764 1043.8 294.475C1042.63 293.596 1041.64 291.662 1040.82 288.674C1040.05 285.627 1039.18 283.576 1038.18 282.521C1036.6 280.822 1033.79 279.328 1029.74 278.039C1025.76 276.691 1021.28 276.018 1016.29 276.018C1009.15 276.018 1002.94 277.482 997.662 280.412C993.912 282.58 990.455 286.359 987.291 291.75C984.127 297.141 982.545 303 982.545 309.328V322.336C982.545 332.004 985.328 339.357 990.895 344.396C996.52 349.377 1005.43 351.867 1017.61 351.867C1025.88 351.867 1033.4 350.314 1040.2 347.209V334.289H1021.83C1017.5 334.289 1014.39 333.469 1012.52 331.828C1010.7 330.129 1009.79 327.932 1009.79 325.236C1009.79 322.541 1010.7 320.373 1012.52 318.732C1014.39 317.033 1017.5 316.184 1021.83 316.184L1053.82 316.271C1058.16 316.271 1061.24 317.092 1063.05 318.732C1064.93 320.373 1065.87 322.541 1065.87 325.236C1065.87 327.346 1065.22 329.191 1063.93 330.773C1062.7 332.355 1060.8 333.527 1058.22 334.289Z" fill="#FFD400"/>
<rect width="332" height="332" transform="translate(78 148)" fill="black"/>
<path d="M100.479 170.479H337.375L337.143 198.146H129.01V407.375H100.479V170.479Z" fill="#FFD400"/>
<path d="M150.625 220.625H385.792V455.792H150.625V220.625Z" fill="#FFD400"/>
<path d="M335.409 345.35C339.48 345.35 343.352 345.762 347.018 346.593C350.349 347.338 353.525 348.421 356.549 349.839C358.406 348.388 360.38 347.539 362.454 347.539C365.019 347.539 367.22 348.446 368.893 350.298C370.65 352.243 371.316 355.261 371.316 358.873V368.264C371.316 371.894 370.619 374.926 368.82 376.911L368.819 376.909C367.146 378.76 364.947 379.667 362.383 379.667C360.305 379.667 358.443 379.02 356.888 377.705C355.492 376.606 354.592 374.569 353.937 372.181L353.927 372.144C353.321 369.722 352.698 368.465 352.229 367.968L352.221 367.96C351.258 366.926 349.346 365.836 346.182 364.827L346.167 364.822L346.154 364.817C343.161 363.805 339.75 363.286 335.904 363.285C330.4 363.285 325.709 364.412 321.773 366.599C319.118 368.142 316.537 370.904 314.092 375.07C311.707 379.132 310.517 383.538 310.517 388.318V398.769C310.517 406.197 312.644 411.579 316.657 415.211C320.715 418.796 327.357 420.767 336.962 420.767C342.967 420.767 348.433 419.711 353.381 417.624V410.103H340.352C336.732 410.103 333.711 409.432 331.728 407.697L331.707 407.678L331.685 407.658C329.846 405.936 328.948 403.698 328.948 401.099C328.948 398.5 329.846 396.272 331.707 394.591C333.692 392.794 336.722 392.097 340.352 392.097H340.357L366.061 392.168C369.658 392.168 372.662 392.831 374.607 394.573C376.522 396.248 377.459 398.482 377.459 401.099C377.459 403.177 376.813 405.051 375.517 406.641L375.516 406.64C374.48 407.958 373.045 408.927 371.316 409.606V428.823L370.408 429.313C363.805 432.875 358.098 435.343 353.31 436.662L353.309 436.66C348.575 438.024 343.476 438.702 338.021 438.702C330.46 438.702 323.419 437.568 316.912 435.287C311.822 433.542 307.687 431.3 304.593 428.511L304.583 428.502C301.538 425.711 298.809 421.685 296.352 416.532L296.349 416.527C293.827 411.186 292.582 405.256 292.582 398.769V388.318C292.582 378.286 295.652 369.297 301.773 361.413C310.027 350.705 321.301 345.35 335.409 345.35Z" fill="black"/>
<path d="M199.506 232.505C203.343 232.505 206.922 232.942 210.232 233.828C213.153 234.558 215.851 235.646 218.314 237.097C220.113 235.625 222.063 234.765 224.15 234.765C226.733 234.765 228.938 235.71 230.605 237.615C232.394 239.559 233.081 242.539 233.081 246.097V256.972C233.081 260.601 232.383 263.629 230.587 265.615L230.588 265.616C228.915 267.469 226.715 268.375 224.15 268.375C221.982 268.375 220.035 267.709 218.391 266.359C216.876 265.163 216.001 263.057 215.468 260.586C214.965 258.254 214.372 256.845 213.813 256.123L213.807 256.114C212.664 254.618 210.881 253.267 208.33 252.124C205.862 251.018 202.957 250.441 199.576 250.44C194.613 250.44 190.892 251.602 188.227 253.733L188.225 253.735C185.428 255.964 184.357 258.038 184.357 259.939C184.357 261.3 184.815 262.688 185.853 264.132C186.761 265.3 188.057 266.303 189.816 267.104L190.603 267.438L190.63 267.448C191.286 267.718 192.683 268.12 194.941 268.652C197.16 269.175 200.109 269.801 203.795 270.528C211.274 271.996 217.11 273.625 221.237 275.441C225.54 277.314 229.106 280.254 231.916 284.218C234.614 288.026 236.014 292.487 236.171 297.533C236.504 297.52 236.843 297.513 237.188 297.513H237.194L256.754 297.582C260.324 297.583 263.31 298.252 265.251 300.005C267.153 301.679 268.08 303.906 268.08 306.515C268.079 309.114 267.184 311.353 265.344 313.074L265.332 313.084L265.322 313.094C263.377 314.851 260.359 315.517 256.747 315.517H255.952L274.194 359.3L292.561 315.517H291.844C288.224 315.517 285.203 314.848 283.22 313.113L283.198 313.094L283.176 313.074C281.336 311.353 280.441 309.114 280.44 306.515C280.44 303.916 281.337 301.687 283.198 300.005C285.183 298.208 288.214 297.513 291.844 297.513H291.849L311.268 297.582C314.878 297.583 317.89 298.25 319.835 300.005C321.737 301.679 322.665 303.906 322.665 306.515C322.664 309.704 321.227 312.27 318.533 314.077C317.685 314.666 316.569 315.005 315.365 315.21C314.414 315.372 313.311 315.464 312.067 315.499L282.332 386.626H266.117L236.451 315.499C235.187 315.464 234.067 315.374 233.104 315.212C232.181 315.056 231.31 314.821 230.571 314.458C229.801 315.34 228.953 316.179 228.023 316.969L228.02 316.974C220.968 322.934 212.028 325.857 201.341 325.857C197.196 325.857 193.142 325.344 189.185 324.318C185.706 323.447 182.312 322.169 179.002 320.494C178.069 321.5 177.178 322.284 176.342 322.736L176.344 322.739C176.333 322.746 176.321 322.75 176.31 322.756L176.305 322.76L176.304 322.758C175.233 323.35 173.993 323.596 172.671 323.596C170.037 323.596 167.771 322.708 166.042 320.86L166.023 320.838L166.003 320.816C164.271 318.836 163.598 315.843 163.598 312.263V302.518C163.598 298.906 164.265 295.89 166.022 293.945L166.023 293.943C167.747 292.041 170.019 291.115 172.671 291.115C174.684 291.115 176.495 291.653 177.982 292.83C179.552 294.035 180.586 295.924 181.25 298.215C181.848 300.241 182.396 301.333 182.788 301.79C183.911 302.976 186.059 304.334 189.458 305.804C192.706 307.209 196.283 307.922 200.211 307.922C206.391 307.922 211.305 306.482 215.083 303.734L215.097 303.722L215.112 303.712C217.388 302.127 218.325 300.353 218.325 298.352C218.325 297.012 217.86 295.719 216.809 294.435L216.801 294.424L216.794 294.414C215.798 293.16 214.055 291.989 211.346 291.012L211.326 291.003C209.611 290.36 205.556 289.419 198.979 288.188C191.011 286.718 184.839 284.917 180.569 282.732C176.249 280.522 172.811 277.391 170.287 273.354C167.764 269.317 166.494 264.928 166.494 260.221C166.494 252.748 169.647 246.25 175.75 240.79L176.334 240.276C182.417 235.058 190.19 232.505 199.506 232.505Z" fill="black"/>
</svg>
