<svg width="192" height="192" viewBox="0 0 192 192" fill="none" xmlns="http://www.w3.org/2000/svg">
<rect width="192" height="192" fill="black"/>
<path d="M13 13H150L149.866 29H29.5V150H13V13Z" fill="#FFD400"/>
<path d="M42 42H178V178H42V42Z" fill="#FFD400"/>
<path d="M148.863 114.13C151.217 114.13 153.456 114.368 155.577 114.849C157.503 115.28 159.34 115.906 161.089 116.726C162.163 115.887 163.304 115.396 164.504 115.396C165.987 115.396 167.26 115.92 168.227 116.992C169.243 118.117 169.629 119.862 169.629 121.951V127.381C169.629 129.481 169.225 131.234 168.185 132.382L168.184 132.381C167.217 133.452 165.945 133.976 164.463 133.976C163.261 133.976 162.184 133.602 161.285 132.841C160.477 132.206 159.957 131.028 159.578 129.647L159.572 129.625C159.222 128.225 158.861 127.498 158.591 127.21L158.586 127.206C158.029 126.608 156.923 125.977 155.093 125.394L155.085 125.391L155.077 125.388C153.346 124.803 151.374 124.502 149.149 124.502C145.966 124.502 143.254 125.154 140.977 126.418C139.442 127.311 137.949 128.908 136.535 131.318C135.156 133.667 134.468 136.214 134.467 138.979V145.023C134.468 149.319 135.698 152.431 138.018 154.532C140.365 156.605 144.206 157.745 149.761 157.745C153.234 157.745 156.395 157.134 159.257 155.927V151.578H151.721C149.628 151.578 147.881 151.189 146.734 150.186L146.722 150.175L146.71 150.164C145.646 149.168 145.127 147.874 145.127 146.371C145.127 144.868 145.646 143.579 146.722 142.607C147.87 141.567 149.622 141.165 151.721 141.164H151.724L166.59 141.206C168.67 141.206 170.407 141.589 171.532 142.596C172.639 143.565 173.181 144.857 173.181 146.371C173.181 147.572 172.808 148.656 172.058 149.576L172.057 149.575C171.458 150.337 170.629 150.898 169.629 151.29V162.404L169.103 162.687C165.285 164.747 161.985 166.174 159.216 166.937L159.215 166.936C156.477 167.725 153.528 168.117 150.374 168.117C146.001 168.117 141.929 167.461 138.166 166.142C135.222 165.133 132.831 163.836 131.042 162.223L131.036 162.218C129.275 160.604 127.697 158.276 126.276 155.295L126.274 155.292C124.816 152.204 124.095 148.774 124.095 145.023V138.979C124.095 133.177 125.871 127.979 129.411 123.419C134.184 117.227 140.704 114.13 148.863 114.13Z" fill="black"/>
<path d="M70.2682 48.8705C72.4875 48.8706 74.5572 49.1228 76.4714 49.6352C78.1606 50.0575 79.7213 50.6869 81.1452 51.5258C82.186 50.6746 83.3134 50.1772 84.5202 50.1772C86.0144 50.1772 87.2893 50.7236 88.2536 51.8256C89.2883 52.9498 89.6852 54.6732 89.6852 56.7309V63.02C89.6852 65.1186 89.282 66.87 88.2429 68.018L88.2438 68.019C87.2761 69.0904 86.0036 69.6146 84.5202 69.6147C83.2664 69.6147 82.1405 69.2293 81.1901 68.4487C80.3139 67.7568 79.808 66.539 79.4997 65.1098C79.2088 63.7612 78.8655 62.9465 78.5427 62.5287L78.5388 62.5239C77.8782 61.6585 76.8467 60.8774 75.3718 60.2162C73.9442 59.5764 72.2641 59.2427 70.3093 59.2426C67.4387 59.2426 65.2868 59.9142 63.7458 61.1469L63.7448 61.1479C62.1268 62.4373 61.5076 63.6364 61.5075 64.7358C61.5076 65.5227 61.7723 66.3254 62.3727 67.1606C62.898 67.836 63.6477 68.4159 64.6647 68.8793L65.1198 69.0727L65.1354 69.0786C65.5145 69.2346 66.3224 69.4671 67.6286 69.7748C68.9118 70.0772 70.6171 70.4389 72.7487 70.8598C77.074 71.7084 80.4494 72.6503 82.8356 73.7006C85.3245 74.784 87.3863 76.4843 89.0114 78.7768C90.5722 80.9786 91.3817 83.5586 91.4724 86.477C91.6651 86.4695 91.8611 86.4653 92.0602 86.4653H92.0641L103.376 86.5053C105.441 86.5056 107.167 86.8927 108.29 87.9067C109.39 88.8746 109.925 90.1624 109.925 91.6713C109.925 93.1743 109.407 94.4689 108.343 95.4643L108.337 95.4702L108.331 95.476C107.206 96.4919 105.461 96.8774 103.372 96.8774H102.912L113.462 122.198L124.084 96.8774H123.669C121.575 96.8773 119.828 96.4902 118.681 95.4868L118.669 95.476L118.656 95.4643C117.592 94.4689 117.074 93.1743 117.074 91.6713C117.074 90.1683 117.592 88.8789 118.669 87.9067C119.817 86.8672 121.57 86.4653 123.669 86.4653H123.672L134.902 86.5053C136.99 86.5056 138.732 86.8913 139.856 87.9067C140.956 88.8746 141.493 90.1622 141.493 91.6713C141.493 93.5155 140.661 94.9992 139.103 96.0444C138.613 96.3851 137.968 96.5811 137.271 96.6996C136.721 96.7932 136.083 96.8464 135.364 96.8666L118.168 138H108.791L91.6345 96.8666C90.9032 96.8466 90.2554 96.7943 89.6989 96.7006C89.1651 96.6107 88.6614 96.4748 88.2341 96.2651C87.7885 96.7749 87.2982 97.2598 86.7604 97.7172L86.7585 97.7202C82.6802 101.167 77.51 102.857 71.3298 102.857C68.9324 102.857 66.5879 102.561 64.2995 101.967C62.2878 101.464 60.3249 100.724 58.4108 99.7553C57.8711 100.337 57.356 100.791 56.8727 101.052L56.8737 101.054C56.8674 101.058 56.8605 101.06 56.8542 101.064L56.8513 101.066L56.8503 101.065C56.231 101.407 55.5142 101.549 54.7497 101.549C53.2263 101.549 51.9156 101.036 50.9157 99.9672L50.905 99.9545L50.8932 99.9418C49.8914 98.7965 49.5026 97.0659 49.5026 94.9955V89.3598C49.5027 87.271 49.888 85.5267 50.904 84.4018L50.905 84.4008C51.902 83.3008 53.2159 82.7651 54.7497 82.7651C55.9137 82.7651 56.9611 83.0765 57.821 83.7573C58.7287 84.4541 59.327 85.5466 59.7106 86.8715C60.0568 88.0432 60.3735 88.6744 60.6003 88.9389C61.2497 89.6245 62.492 90.4102 64.4577 91.2602C66.3359 92.0724 68.4046 92.4848 70.6765 92.4848C74.25 92.4848 77.0921 91.652 79.277 90.0629L79.2849 90.0561L79.2936 90.0502C80.6097 89.1335 81.152 88.1078 81.152 86.9506C81.1519 86.1754 80.8827 85.4277 80.2751 84.685L80.2702 84.6791L80.2663 84.6733C79.6903 83.948 78.6823 83.2704 77.1159 82.7055L77.1042 82.7006C76.1124 82.3287 73.7674 81.7842 69.9636 81.0727C65.3559 80.2224 61.7865 79.1809 59.3171 77.9174C56.8189 76.6392 54.8302 74.8287 53.3708 72.4936C51.9118 70.1592 51.1775 67.6209 51.1774 64.8989C51.1775 60.5772 53.0005 56.8194 56.53 53.6616L56.8679 53.3647C60.3856 50.3468 64.8808 48.8705 70.2682 48.8705Z" fill="black"/>
</svg>
