<svg width="1044" height="332" viewBox="0 0 1044 332" fill="none" xmlns="http://www.w3.org/2000/svg">
<rect width="1044" height="332" fill="black"/>
<path d="M453.691 186.289V210.459C445.547 214.854 438.604 217.842 432.861 219.424C427.178 221.064 421.025 221.885 414.404 221.885C405.205 221.885 396.68 220.508 388.828 217.754C382.676 215.645 377.812 212.979 374.238 209.756C370.723 206.533 367.471 201.787 364.482 195.518C361.494 189.189 360 182.129 360 174.336V161.328C360 149.316 363.662 138.594 370.986 129.16C380.83 116.387 394.219 110 411.152 110C416.074 110 420.732 110.498 425.127 111.494C429.58 112.49 433.799 113.984 437.783 115.977C440.186 113.809 442.529 112.725 444.814 112.725C447.451 112.725 449.59 113.633 451.23 115.449C452.871 117.266 453.691 120.342 453.691 124.678V136.367C453.691 140.703 452.842 143.809 451.143 145.684C449.502 147.5 447.363 148.408 444.727 148.408C442.617 148.408 440.801 147.764 439.277 146.475C438.105 145.596 437.109 143.662 436.289 140.674C435.527 137.627 434.648 135.576 433.652 134.521C432.07 132.822 429.258 131.328 425.215 130.039C421.23 128.691 416.748 128.018 411.768 128.018C404.619 128.018 398.408 129.482 393.135 132.412C389.385 134.58 385.928 138.359 382.764 143.75C379.6 149.141 378.018 155 378.018 161.328V174.336C378.018 184.004 380.801 191.357 386.367 196.396C391.992 201.377 400.898 203.867 413.086 203.867C421.348 203.867 428.877 202.314 435.674 199.209V186.289H417.305C412.969 186.289 409.863 185.469 407.988 183.828C406.172 182.129 405.264 179.932 405.264 177.236C405.264 174.541 406.172 172.373 407.988 170.732C409.863 169.033 412.969 168.184 417.305 168.184L449.297 168.271C453.633 168.271 456.709 169.092 458.525 170.732C460.4 172.373 461.338 174.541 461.338 177.236C461.338 179.346 460.693 181.191 459.404 182.773C458.174 184.355 456.27 185.527 453.691 186.289Z" fill="#FFD400"/>
<path d="M561.621 188.486H487.705C489.58 193.174 492.891 196.953 497.637 199.824C502.441 202.695 508.916 204.131 517.061 204.131C523.74 204.131 532.617 202.695 543.691 199.824C548.262 198.652 551.426 198.066 553.184 198.066C555.586 198.066 557.607 198.916 559.248 200.615C560.889 202.314 561.709 204.453 561.709 207.031C561.709 209.375 560.83 211.367 559.072 213.008C556.729 215.176 551.016 217.256 541.934 219.248C532.852 221.182 524.121 222.148 515.742 222.148C501.328 222.148 489.785 218.076 481.113 209.932C472.5 201.787 468.193 191.768 468.193 179.873C468.193 167.217 472.852 156.934 482.168 149.023C491.543 141.055 502.324 137.07 514.512 137.07C521.836 137.07 528.545 138.359 534.639 140.938C540.791 143.516 545.361 146.299 548.35 149.287C552.568 153.623 556.055 158.984 558.809 165.371C560.684 169.824 561.621 174.98 561.621 180.84V188.486ZM541.67 170.469C538.916 165.312 535.312 161.475 530.859 158.955C526.406 156.377 521.104 155.088 514.951 155.088C508.857 155.088 503.584 156.377 499.131 158.955C494.678 161.475 491.045 165.312 488.232 170.469H541.67Z" fill="#FFD400"/>
<path d="M608.068 157.461V193.584C608.068 197.451 608.859 200 610.441 201.23C612.902 203.164 617.297 204.131 623.625 204.131C632.824 204.131 641.32 202.168 649.113 198.242C652.102 196.719 654.445 195.957 656.145 195.957C658.488 195.957 660.51 196.836 662.209 198.594C663.967 200.352 664.846 202.49 664.846 205.01C664.846 207.354 663.908 209.375 662.033 211.074C659.162 213.828 653.479 216.377 644.982 218.721C636.545 221.006 629.426 222.148 623.625 222.148C612.434 222.148 604.025 219.746 598.4 214.941C592.834 210.078 590.051 204.131 590.051 197.1V157.461H583.547C579.211 157.461 576.105 156.641 574.23 155C572.414 153.301 571.506 151.104 571.506 148.408C571.506 145.771 572.414 143.633 574.23 141.992C576.105 140.293 579.211 139.443 583.547 139.443H590.051V123.184C590.051 118.848 590.871 115.771 592.512 113.955C594.211 112.08 596.408 111.143 599.104 111.143C601.74 111.143 603.879 112.08 605.52 113.955C607.219 115.771 608.068 118.848 608.068 123.184V139.443H641.379C645.715 139.443 648.791 140.293 650.607 141.992C652.482 143.633 653.42 145.801 653.42 148.496C653.42 151.133 652.482 153.301 650.607 155C648.791 156.641 645.715 157.461 641.379 157.461H608.068Z" fill="#FFD400"/>
<path d="M694.289 214.678C692.707 216.553 691.418 217.754 690.422 218.281C689.484 218.809 688.312 219.072 686.906 219.072C684.152 219.072 681.926 218.164 680.227 216.348C678.586 214.473 677.766 211.396 677.766 207.119V194.99C677.766 190.654 678.586 187.578 680.227 185.762C681.926 183.887 684.152 182.949 686.906 182.949C689.016 182.949 690.773 183.506 692.18 184.619C693.645 185.732 694.758 187.607 695.52 190.244C696.281 192.822 697.072 194.58 697.893 195.518C699.592 197.334 702.609 199.18 706.945 201.055C711.281 202.93 716.027 203.867 721.184 203.867C729.211 203.867 735.803 201.992 740.959 198.242C744.24 195.957 745.881 193.145 745.881 189.805C745.881 187.578 745.09 185.498 743.508 183.564C741.926 181.572 739.348 179.932 735.773 178.643C733.43 177.764 728.186 176.562 720.041 175.039C710.197 173.223 702.756 171.025 697.717 168.447C692.678 165.869 688.693 162.236 685.764 157.549C682.834 152.861 681.369 147.793 681.369 142.344C681.369 133.73 684.973 126.201 692.18 119.756C699.387 113.252 708.762 110 720.305 110C724.934 110 729.211 110.527 733.137 111.582C737.121 112.578 740.725 114.131 743.947 116.24C746.291 113.955 748.635 112.812 750.979 112.812C753.615 112.812 755.754 113.75 757.395 115.625C759.094 117.441 759.943 120.488 759.943 124.766V138.301C759.943 142.637 759.094 145.742 757.395 147.617C755.754 149.434 753.615 150.342 750.979 150.342C748.752 150.342 746.818 149.668 745.178 148.32C743.889 147.324 742.922 145.332 742.277 142.344C741.633 139.355 740.812 137.217 739.816 135.928C738.117 133.701 735.568 131.826 732.17 130.303C728.771 128.779 724.846 128.018 720.393 128.018C713.889 128.018 708.732 129.541 704.924 132.588C701.174 135.576 699.299 138.711 699.299 141.992C699.299 144.219 700.061 146.387 701.584 148.496C703.166 150.547 705.451 152.158 708.439 153.33C710.432 154.15 716.027 155.469 725.227 157.285C734.484 159.102 741.574 161.094 746.496 163.262C751.477 165.43 755.607 168.828 758.889 173.457C762.17 178.086 763.811 183.594 763.811 189.98C763.811 198.887 760.676 206.006 754.406 211.338C746.086 218.369 735.48 221.885 722.59 221.885C717.609 221.885 712.746 221.27 708 220.039C703.312 218.867 698.742 217.08 694.289 214.678Z" fill="#FFD400"/>
<path d="M828.674 192.969L854.777 130.742H850.646C846.311 130.742 843.205 129.922 841.33 128.281C839.514 126.582 838.605 124.385 838.605 121.689C838.605 118.994 839.514 116.826 841.33 115.186C843.205 113.486 846.311 112.637 850.646 112.637L874.816 112.725C879.152 112.725 882.229 113.545 884.045 115.186C885.92 116.826 886.857 118.994 886.857 121.689C886.857 124.912 885.451 127.461 882.639 129.336C881.291 130.273 878.537 130.742 874.377 130.742L837.375 219.248H820.061L783.146 130.742C778.928 130.742 776.145 130.273 774.797 129.336C771.984 127.52 770.578 124.971 770.578 121.689C770.578 118.994 771.516 116.826 773.391 115.186C775.207 113.486 778.283 112.637 782.619 112.637L806.965 112.725C811.242 112.725 814.289 113.545 816.105 115.186C817.98 116.826 818.918 118.994 818.918 121.689C818.918 124.385 818.01 126.582 816.193 128.281C814.377 129.922 811.301 130.742 806.965 130.742H802.746L828.674 192.969Z" fill="#FFD400"/>
<path d="M982.219 186.289V210.459C974.074 214.854 967.131 217.842 961.389 219.424C955.705 221.064 949.553 221.885 942.932 221.885C933.732 221.885 925.207 220.508 917.355 217.754C911.203 215.645 906.34 212.979 902.766 209.756C899.25 206.533 895.998 201.787 893.01 195.518C890.021 189.189 888.527 182.129 888.527 174.336V161.328C888.527 149.316 892.189 138.594 899.514 129.16C909.357 116.387 922.746 110 939.68 110C944.602 110 949.26 110.498 953.654 111.494C958.107 112.49 962.326 113.984 966.311 115.977C968.713 113.809 971.057 112.725 973.342 112.725C975.979 112.725 978.117 113.633 979.758 115.449C981.398 117.266 982.219 120.342 982.219 124.678V136.367C982.219 140.703 981.369 143.809 979.67 145.684C978.029 147.5 975.891 148.408 973.254 148.408C971.145 148.408 969.328 147.764 967.805 146.475C966.633 145.596 965.637 143.662 964.816 140.674C964.055 137.627 963.176 135.576 962.18 134.521C960.598 132.822 957.785 131.328 953.742 130.039C949.758 128.691 945.275 128.018 940.295 128.018C933.146 128.018 926.936 129.482 921.662 132.412C917.912 134.58 914.455 138.359 911.291 143.75C908.127 149.141 906.545 155 906.545 161.328V174.336C906.545 184.004 909.328 191.357 914.895 196.396C920.52 201.377 929.426 203.867 941.613 203.867C949.875 203.867 957.404 202.314 964.201 199.209V186.289H945.832C941.496 186.289 938.391 185.469 936.516 183.828C934.699 182.129 933.791 179.932 933.791 177.236C933.791 174.541 934.699 172.373 936.516 170.732C938.391 169.033 941.496 168.184 945.832 168.184L977.824 168.271C982.16 168.271 985.236 169.092 987.053 170.732C988.928 172.373 989.865 174.541 989.865 177.236C989.865 179.346 989.221 181.191 987.932 182.773C986.701 184.355 984.797 185.527 982.219 186.289Z" fill="#FFD400"/>
<rect width="332" height="332" fill="black"/>
<path d="M22.4792 22.4792H259.375L259.143 50.1459H51.0104V259.375H22.4792V22.4792Z" fill="#FFD400"/>
<path d="M72.6251 72.625H307.792V307.792H72.6251V72.625Z" fill="#FFD400"/>
<path d="M257.409 197.35C261.48 197.35 265.352 197.762 269.018 198.593C272.349 199.338 275.525 200.421 278.549 201.839C280.406 200.388 282.38 199.539 284.454 199.539C287.019 199.539 289.22 200.446 290.893 202.298C292.65 204.243 293.316 207.261 293.316 210.873V220.264C293.316 223.894 292.619 226.926 290.82 228.911L290.819 228.909C289.146 230.76 286.947 231.667 284.383 231.667C282.305 231.667 280.443 231.02 278.888 229.705C277.492 228.606 276.592 226.569 275.937 224.181L275.927 224.144C275.321 221.722 274.698 220.465 274.229 219.968L274.221 219.96C273.258 218.926 271.346 217.836 268.182 216.827L268.167 216.822L268.154 216.817C265.161 215.805 261.75 215.286 257.904 215.285C252.4 215.285 247.709 216.412 243.773 218.599C241.118 220.142 238.537 222.904 236.092 227.07C233.707 231.132 232.517 235.538 232.517 240.318V250.769C232.517 258.197 234.644 263.579 238.657 267.211C242.715 270.796 249.357 272.767 258.962 272.767C264.967 272.767 270.433 271.711 275.381 269.624V262.103H262.352C258.732 262.103 255.711 261.432 253.728 259.697L253.707 259.678L253.685 259.658C251.846 257.936 250.948 255.698 250.948 253.099C250.948 250.5 251.846 248.272 253.707 246.591C255.692 244.794 258.722 244.097 262.352 244.097H262.357L288.061 244.168C291.658 244.168 294.662 244.831 296.607 246.573C298.522 248.248 299.459 250.482 299.459 253.099C299.459 255.177 298.813 257.051 297.517 258.641L297.516 258.64C296.48 259.958 295.045 260.927 293.316 261.606V280.823L292.408 281.313C285.805 284.875 280.098 287.343 275.31 288.662L275.309 288.66C270.575 290.024 265.476 290.702 260.021 290.702C252.46 290.702 245.419 289.568 238.912 287.287C233.822 285.542 229.687 283.3 226.593 280.511L226.583 280.502C223.538 277.711 220.809 273.685 218.352 268.532L218.349 268.527C215.827 263.186 214.582 257.256 214.582 250.769V240.318C214.582 230.286 217.652 221.297 223.773 213.413C232.027 202.705 243.301 197.35 257.409 197.35Z" fill="black"/>
<path d="M121.506 84.5054C125.343 84.5054 128.922 84.9416 132.232 85.8276C135.153 86.5578 137.851 87.6462 140.314 89.0968C142.113 87.6249 144.063 86.7648 146.15 86.7648C148.733 86.7648 150.938 87.7097 152.605 89.6152C154.394 91.559 155.081 94.5391 155.081 98.0972V108.972C155.081 112.601 154.383 115.629 152.587 117.615L152.588 117.616C150.915 119.469 148.715 120.375 146.15 120.375C143.982 120.375 142.035 119.709 140.391 118.359C138.876 117.163 138.001 115.057 137.468 112.586C136.965 110.254 136.372 108.845 135.813 108.123L135.807 108.114C134.664 106.618 132.881 105.267 130.33 104.124C127.862 103.018 124.957 102.441 121.576 102.44C116.613 102.44 112.892 103.602 110.227 105.733L110.225 105.735C107.428 107.964 106.357 110.038 106.357 111.939C106.357 113.3 106.815 114.688 107.853 116.132C108.761 117.3 110.057 118.303 111.816 119.104L112.603 119.438L112.63 119.448C113.286 119.718 114.683 120.12 116.941 120.652C119.16 121.175 122.109 121.801 125.795 122.528C133.274 123.996 139.11 125.625 143.237 127.441C147.54 129.314 151.106 132.254 153.916 136.218C156.614 140.026 158.014 144.487 158.171 149.533C158.504 149.52 158.843 149.513 159.188 149.513H159.194L178.754 149.582C182.324 149.583 185.31 150.252 187.251 152.005C189.153 153.679 190.08 155.906 190.08 158.515C190.079 161.114 189.184 163.353 187.344 165.074L187.332 165.084L187.322 165.094C185.377 166.851 182.359 167.517 178.747 167.517H177.952L196.194 211.3L214.561 167.517H213.844C210.224 167.517 207.203 166.848 205.22 165.113L205.198 165.094L205.176 165.074C203.336 163.353 202.441 161.114 202.44 158.515C202.44 155.916 203.337 153.687 205.198 152.005C207.183 150.208 210.214 149.513 213.844 149.513H213.849L233.268 149.582C236.878 149.583 239.89 150.25 241.835 152.005C243.737 153.679 244.665 155.906 244.665 158.515C244.664 161.704 243.227 164.27 240.533 166.077C239.685 166.666 238.569 167.005 237.365 167.21C236.414 167.372 235.311 167.464 234.067 167.499L204.332 238.626H188.117L158.451 167.499C157.187 167.464 156.067 167.374 155.104 167.212C154.181 167.056 153.31 166.821 152.571 166.458C151.801 167.34 150.953 168.179 150.023 168.969L150.02 168.974C142.968 174.934 134.028 177.857 123.341 177.857C119.196 177.857 115.142 177.344 111.185 176.318C107.706 175.447 104.312 174.169 101.002 172.494C100.069 173.5 99.1781 174.284 98.3425 174.736L98.3442 174.739C98.3333 174.746 98.3213 174.75 98.3104 174.756L98.3053 174.76L98.3036 174.758C97.2329 175.35 95.9934 175.596 94.6714 175.596C92.0373 175.596 89.7708 174.708 88.0418 172.86L88.0232 172.838L88.0029 172.816C86.2705 170.836 85.5983 167.843 85.5983 164.263V154.518C85.5985 150.906 86.2647 147.89 88.0215 145.945L88.0232 145.943C89.7472 144.041 92.0192 143.115 94.6714 143.115C96.6842 143.115 98.4952 143.653 99.9822 144.83C101.552 146.035 102.586 147.924 103.25 150.215C103.848 152.241 104.396 153.333 104.788 153.79C105.911 154.976 108.059 156.334 111.458 157.804C114.706 159.209 118.283 159.922 122.211 159.922C128.391 159.922 133.305 158.482 137.083 155.734L137.097 155.722L137.112 155.712C139.388 154.127 140.325 152.353 140.325 150.352C140.325 149.012 139.86 147.719 138.809 146.435L138.801 146.424L138.794 146.414C137.798 145.16 136.055 143.989 133.346 143.012L133.326 143.003C131.611 142.36 127.556 141.419 120.979 140.188C113.011 138.718 106.839 136.917 102.569 134.732C98.2494 132.522 94.8106 129.391 92.287 125.354C89.7642 121.317 88.4944 116.928 88.4943 112.221C88.4944 104.748 91.6468 98.2503 97.7498 92.7898L98.334 92.2765C104.417 87.058 112.19 84.5054 121.506 84.5054Z" fill="black"/>
</svg>
